<svg id="レイヤー_1" data-name="レイヤー 1" xmlns="http://www.w3.org/2000/svg" viewBox="0 0 60 60"><defs><style>.cls-1{fill:#fff;}.cls-2{fill:#242424;}.cls-3{fill:#fdfdfd;}.cls-4{fill:#2b2b2b;}</style></defs><title>アートボード 2</title><rect class="cls-1" width="60" height="60"/><path class="cls-2" d="M11,28.9A17.68,17.68,0,0,1,21.7,12.3a17.3,17.3,0,0,1,18.9,3.8A19.54,19.54,0,0,1,42.4,40s6.4,7.1,7.9,8.7c.8.8,1.1,1.7.2,2.6s-1.8.4-2.6-.3c-3.1-2.7-5.8-5.6-8.5-8.2A17.53,17.53,0,0,1,29,46.3C18.8,46.3,11.1,39.4,11,28.9Z"/><path class="cls-3" d="M42,29.4c-.3,7.5-6.7,13.7-14,13.5A14,14,0,0,1,14.6,28.4,13.69,13.69,0,0,1,28.8,14.8C36.5,15,42.3,21.4,42,29.4Z"/><path class="cls-4" d="M35.1,22c1.1,2.8-.1,4.7-2,6.6C32.1,29.7,30,30,30,31c0,2.8,0,2.9-1.5,3s-1.6-.7-1.6-1.9c0-1.7-.3-2.2.9-3.5s5.7-2.8,3.5-6.2c-.9-1.4-3-1.5-4.5-.7-2.6,1.4-1.9,4-4.7,2.5-1-.5-.9-1.3-.4-2.1,1.7-3.1,3.6-3.7,6.4-4C31.8,18.2,34.2,19.7,35.1,22Z"/><circle class="cls-2" cx="28.5" cy="37.1" r="2.1"/></svg>