<svg xmlns="http://www.w3.org/2000/svg" viewBox="0 0 69.7 73.29"><defs><style>.cls-1{fill:#6b8c7e;}</style></defs><g id="图层_2" data-name="图层 2"><g id="图层_2-2" data-name="图层 2"><path class="cls-1" d="M38.09,42.23H2a1.92,1.92,0,1,1,0-3.84H33L21.58,26.93a2,2,0,0,1,0-2.89,2,2,0,0,1,2.92,0l15,15a2.08,2.08,0,0,1,.09,2.5,1.77,1.77,0,0,1-1.49.62Z"/><path class="cls-1" d="M67.6,73.29H26.45a2,2,0,0,1-2.11-1.93V59.69a1.75,1.75,0,0,1,1.89-1.94,1.86,1.86,0,0,1,2.05,1.83v9.8H65.77V3.81H28.28v9.53a1.83,1.83,0,0,1-1.94,1.93,1.79,1.79,0,0,1-1.94-1.85l0-11.32A2.1,2.1,0,0,1,26.46,0H67.64A2.06,2.06,0,0,1,69.7,2.08h0V71.19A2.1,2.1,0,0,1,67.6,73.29Z"/></g></g></svg>