<svg id="レイヤー_1" data-name="レイヤー 1" xmlns="http://www.w3.org/2000/svg" viewBox="0 0 60 60"><defs><style>.cls-1{fill:#fff;}.cls-2{fill:#222;}</style></defs><title>アートボード 5</title><rect class="cls-1" width="60" height="60"/><path class="cls-2" d="M36.17,25.7a8.7,8.7,0,0,1-4.93,1.6,47.08,47.08,0,0,0,.54,5.78h-2.5a45.28,45.28,0,0,0,.53-5.82c-5.1-.62-7.43-3.41-7.11-7.7.36-4.75,4.77-7.2,5-6.49.18.55-.79.67-1.88,2.31-2.42,3.65-.93,8.83,3.95,9.11-.19-2.9-.3-5.3-.34-7,0-1.37,0-2.94.74-3.72,1-1,3.7-1.18,6.07.48C40,16.87,39.64,23.07,36.17,25.7Zm.63-3.24a4.69,4.69,0,0,0-.35-6.05,3.7,3.7,0,0,0-3.32-1c-1.22.24-1.44.71-1.64,2.18-.16,2.29-.25,4.84-.25,7,2.51.08,4.25-.38,5.56-2.05Z"/><path class="cls-2" d="M16.48,46.68l.21,0,0,0V47s0,.06,0,.06,0,0-.05-.06-.09-.16-.15-.17a1.83,1.83,0,0,0-.33,0s0,0,0,.07,0,.39,0,.52,0,0,0,0h.18c.17,0,.17,0,.21-.11s0-.06.05-.06,0,0,0,.06v.33c0,.06,0,.07,0,.07s0,0-.05,0-.06-.13-.15-.13h-.24l0,0V48a.1.1,0,0,0,.05.06h.2a.5.5,0,0,0,.21,0,.39.39,0,0,0,.19-.17c0-.07.05-.09.07-.09s0,0,0,.07a1.22,1.22,0,0,1-.09.27s0,0-.05,0H15.66c-.05,0-.08,0-.08,0s0,0,.07,0,.15,0,.16-.18,0-.28,0-.57v-.46a.14.14,0,0,0-.13-.15s-.07,0-.07,0,0,0,.07,0h.78Z"/><path class="cls-2" d="M17.26,46.67h.55s.07,0,.07,0,0,0-.07.06,0,0,0,0,0,0,0,0,.15.28.23.41,0,0,0,0h0q.15-.18.3-.39s0-.07-.09-.09-.06,0-.06,0,0,0,.06,0h.47s.06,0,.06,0,0,0-.06,0a.53.53,0,0,0-.31.17c-.09.12-.21.24-.31.39s0,0,0,0,.25.4.34.54a.41.41,0,0,0,.31.23.06.06,0,0,1,.06.05s0,0-.09,0h-.61s-.06,0-.06,0,0,0,.06,0l.07,0s0,0,0,0-.26-.44-.29-.47,0,0,0,0a3.65,3.65,0,0,0-.24.31c-.09.15-.06.19,0,.22a.06.06,0,0,1,.06,0s0,0-.06,0H17.2c-.05,0-.08,0-.08,0s0,0,.09,0a.59.59,0,0,0,.27-.17,4.46,4.46,0,0,0,.35-.44,0,0,0,0,0,0,0,4.43,4.43,0,0,0-.36-.59.28.28,0,0,0-.21-.12.08.08,0,0,1-.07,0S17.21,46.67,17.26,46.67Z"/><path class="cls-2" d="M20.22,46.67a.41.41,0,0,0,.19,0h0s0,0,0,.05a.92.92,0,0,0,0,.28s0,.06-.05.06,0,0,0-.07,0-.16-.17-.16h-.29l0,0v1.14c0,.07,0,.12.18.15a.06.06,0,0,1,.06,0s0,0-.06,0h-.35l-.3,0s-.07,0-.07,0,0,0,.05,0,.16-.07.17-.24,0-.61,0-.79V46.8a0,0,0,0,0,0,0h-.27a.18.18,0,0,0-.13.06.5.5,0,0,0-.08.12S19,47,19,47s0,0,0,0a2.65,2.65,0,0,0,0-.32s0,0,0,0l0,0a.18.18,0,0,0,.1,0h1Z"/><path class="cls-2" d="M21.8,47.35l-.1,0s0,0,0,0a5.21,5.21,0,0,0,.36.55.32.32,0,0,0,.2.12s0,0,0,0,0,0,0,0l-.16,0a.42.42,0,0,1-.36-.16l-.28-.45a.39.39,0,0,0-.08-.1.2.2,0,0,0-.11,0l0,0V48c0,.11,0,.12.14.15a0,0,0,0,1,.05,0s0,0-.07,0h-.54s-.07,0-.07,0,0,0,0,0S21,48,21,48a5.43,5.43,0,0,0,0-.58c0-.25,0-.45,0-.51s0-.1-.14-.12a.06.06,0,0,1-.06,0s0,0,.07,0h.58a.72.72,0,0,1,.41.1.41.41,0,0,1,.13.28A.38.38,0,0,1,21.8,47.35Zm-.24-.52a.25.25,0,0,0-.19-.09l-.09,0,0,.05c0,.08,0,.49,0,.55a0,0,0,0,0,0,0,.58.58,0,0,0,.26,0,.33.33,0,0,0,.13-.26.36.36,0,0,0-.1-.25Z"/><path class="cls-2" d="M23.33,46.69l.09.26c.13.37.29.8.34.92s.13.21.21.23.06,0,.06,0,0,0-.07,0h-.55c-.05,0-.08,0-.08,0s0,0,.07,0,.09-.07.09-.1a2,2,0,0,0-.11-.35.06.06,0,0,0-.06,0h-.39s0,0,0,0a1.33,1.33,0,0,0-.1.34s0,.08.11.11.07,0,.07,0,0,0-.07,0h-.43s-.06,0-.06,0,0,0,0,0,.15-.07.22-.21.31-.79.41-1V46.8a.81.81,0,0,0,.12-.14.05.05,0,0,1,.05,0A.09.09,0,0,1,23.33,46.69Zm0,.8L23.16,47s0,0,0,0l-.17.47s0,0,0,0h.35s0,0,0,0Z"/><path class="cls-2" d="M24.87,46.67h.56s.06,0,.06,0,0,0-.06.05-.1.06-.08.13.28.74.34.86h0s.27-.62.34-.81,0-.15-.1-.18a.07.07,0,0,1-.06,0s0,0,.07,0h.41c.05,0,.07,0,.07,0s0,0-.06,0a.3.3,0,0,0-.22.2c-.05.11-.19.4-.34.75-.07.19-.13.32-.17.47s0,.06-.07.06,0,0,0,0a1.9,1.9,0,0,0-.12-.36c-.08-.22-.26-.66-.35-.87a.27.27,0,0,0-.2-.19s-.06,0-.06,0S24.84,46.67,24.87,46.67Z"/><path class="cls-2" d="M26.91,46.93c0-.11,0-.15-.12-.18s-.07,0-.07,0,0,0,.08,0h.55s.07,0,.07,0,0,0-.07,0-.13.09-.13.15,0,.14,0,.54v.46c0,.14,0,.17.15.21s.07,0,.07,0,0,0-.07,0a2.16,2.16,0,0,0-.36,0,1.76,1.76,0,0,1-.23,0c-.1,0-.08,0-.08,0s0,0,.08,0,.12-.07.12-.18,0-.33,0-.53A2.4,2.4,0,0,0,26.91,46.93Z"/><path class="cls-2" d="M28.86,47.35l-.09,0v0a3.25,3.25,0,0,0,.36.55.28.28,0,0,0,.2.12,0,0,0,0,1,0,0s0,0,0,0l-.15,0a.41.41,0,0,1-.36-.16,5.2,5.2,0,0,1-.29-.45.36.36,0,0,0-.07-.1.23.23,0,0,0-.11,0s0,0,0,0V48c0,.11,0,.12.13.15a.06.06,0,0,1,.06,0s-.05,0-.07,0H27.9s-.08,0-.08,0,0,0,.06,0S28,48,28,48s0-.38,0-.58v-.51c0-.07,0-.1-.13-.12a.06.06,0,0,1-.06,0s0,0,.07,0h.58a.74.74,0,0,1,.41.1.41.41,0,0,1,.13.28A.39.39,0,0,1,28.86,47.35Zm-.23-.52a.25.25,0,0,0-.19-.09l-.09,0a.05.05,0,0,0,0,.05,5,5,0,0,0,0,.55,0,0,0,0,0,0,0,.53.53,0,0,0,.25,0,.31.31,0,0,0,.14-.26.36.36,0,0,0-.11-.25Z"/><path class="cls-2" d="M30.74,46.69l.1,0a.07.07,0,0,1,0,0s0,.19,0,.29a0,0,0,0,1,0,.05s0,0-.05-.06a.51.51,0,0,0-.09-.16.49.49,0,0,0-.38-.16.62.62,0,0,0-.57.69.9.9,0,0,0,.1.42.58.58,0,0,0,.5.3.3.3,0,0,0,.15-.05.28.28,0,0,0,0-.16v-.21c0-.06,0-.1-.19-.12s-.07,0-.07,0,0,0,.08,0h.28l.28,0s.06,0,.06,0,0,0-.05,0-.08.05-.09.08V48s0,0,0,.07,0,0,0,0a0,0,0,0,1,0,0l-.21.06-.35,0a1,1,0,0,1-.63-.2.75.75,0,0,1-.24-.59.73.73,0,0,1,.26-.57,1,1,0,0,1,.64-.22A1.53,1.53,0,0,1,30.74,46.69Z"/><path class="cls-2" d="M31.61,46.93c0-.11,0-.15-.12-.18s-.07,0-.07,0,0,0,.07,0H32s.08,0,.08,0,0,0-.08,0-.12.09-.13.15v1c0,.14,0,.17.16.21s.07,0,.07,0,0,0-.08,0a2,2,0,0,0-.35,0,1.92,1.92,0,0,1-.24,0c-.1,0-.07,0-.07,0s0,0,.07,0,.12-.07.13-.18,0-.33,0-.53A3.52,3.52,0,0,0,31.61,46.93Z"/><path class="cls-2" d="M32.52,46.67h.36a.05.05,0,0,1,0,0l.2.23c.12.15.58.63.71.76h0c0-.07,0-.34,0-.54a1.93,1.93,0,0,0,0-.25c0-.06,0-.1-.15-.13s-.08,0-.08-.06,0,0,.07,0h.43c.06,0,.06,0,.06,0s0,0-.06,0a.18.18,0,0,0-.15.18c0,.09,0,.68,0,.89s0,.3,0,.36a.05.05,0,0,1,0,0,.21.21,0,0,1-.13-.09L33.64,48c-.22-.27-.6-.68-.81-.93,0,0,0,0,0,0V48c0,.08,0,.12.15.15s.06,0,.06,0,0,0-.07,0h-.45s-.06,0-.06,0,0,0,.06,0,.16,0,.17-.24,0-.71,0-.89,0-.12,0-.13a.21.21,0,0,0-.19-.11s-.06,0-.06,0S32.48,46.67,32.52,46.67Z"/><path class="cls-2" d="M36.73,47.4a.81.81,0,0,1-.29.65.9.9,0,0,1-.52.17A.85.85,0,0,1,35.3,48a.8.8,0,0,1-.2-.54.74.74,0,0,1,.31-.61.82.82,0,0,1,.5-.17.78.78,0,0,1,.82.74Zm-1.16-.56a.73.73,0,0,0-.16.53c0,.36.22.76.57.76a.34.34,0,0,0,.23-.1.78.78,0,0,0,.18-.55.89.89,0,0,0-.23-.63.53.53,0,0,0-.31-.13A.42.42,0,0,0,35.57,46.84Z"/><path class="cls-2" d="M37.12,46.67h.55c.06,0,.07,0,.07,0s0,0-.05,0-.15.06-.15.09c0,.24,0,.47,0,.71a2.76,2.76,0,0,0,0,.44.09.09,0,0,0,.08.09H38l.07,0a.65.65,0,0,0,.15-.18.15.15,0,0,1,.06,0s0,0,0,.07-.06.21-.07.28l-.06,0s-.23,0-.72,0h-.35c-.08,0-.07,0-.07,0s0,0,0,0,.16-.07.17-.17V46.9c0-.08,0-.12-.13-.15s-.06,0-.06,0S37.08,46.67,37.12,46.67Z"/><path class="cls-2" d="M38.74,46.93c0-.11,0-.15-.12-.18s-.08,0-.08,0,0,0,.08,0h.55s.07,0,.07,0,0,0-.07,0-.12.09-.13.15v1c0,.14,0,.17.16.21s.06,0,.06,0,0,0-.07,0a2,2,0,0,0-.35,0,1.92,1.92,0,0,1-.24,0c-.1,0-.07,0-.07,0s0,0,.07,0,.12-.07.13-.18v-.53A2.4,2.4,0,0,0,38.74,46.93Z"/><path class="cls-2" d="M39.56,46.67h.56s.05,0,.05,0,0,0-.05.05-.11.06-.09.13.29.74.34.86h0s.27-.62.34-.81,0-.15-.11-.18a.05.05,0,0,1-.05,0s0,0,.06,0h.41c.05,0,.08,0,.08,0s0,0-.07,0a.32.32,0,0,0-.21.2c-.06.12-.2.4-.34.75-.08.19-.13.32-.18.47a.07.07,0,0,1-.06.06s-.05,0-.06,0a1.9,1.9,0,0,0-.12-.36c-.08-.22-.26-.66-.35-.87s-.09-.16-.19-.19a.06.06,0,0,1-.06,0S39.52,46.67,39.56,46.67Z"/><path class="cls-2" d="M42.16,46.68l.21,0,0,0V47s0,.06,0,.06,0,0,0-.06-.1-.16-.16-.17a1.67,1.67,0,0,0-.32,0s0,0,0,.07,0,.39,0,.52a0,0,0,0,0,0,0H42c.17,0,.16,0,.21-.11s0-.06.05-.06,0,0,0,.06v.33c0,.06,0,.07,0,.07s0,0,0,0-.07-.13-.16-.13h-.23l0,0a1.82,1.82,0,0,0,0,.33.61.61,0,0,0,0,.19.06.06,0,0,0,0,.06h.19a.55.55,0,0,0,.22,0,.37.37,0,0,0,.18-.17c0-.07.06-.09.08-.09s0,0,0,.07-.06.19-.09.27-.05,0-.06,0H41.34s-.08,0-.08,0,0,0,.07,0,.15,0,.16-.18,0-.28,0-.58v-.45a.13.13,0,0,0-.12-.15s-.08,0-.08,0,0,0,.07,0h.78Z"/><path class="cls-2" d="M45.11,47.4a.79.79,0,0,1-.3.65.87.87,0,0,1-.51.17.85.85,0,0,1-.62-.26.8.8,0,0,1-.2-.54.76.76,0,0,1,.3-.61.87.87,0,0,1,.51-.17.78.78,0,0,1,.82.74ZM44,46.84a.73.73,0,0,0-.16.53c0,.36.22.76.56.76a.35.35,0,0,0,.24-.1.78.78,0,0,0,.18-.55.94.94,0,0,0-.23-.63.54.54,0,0,0-.32-.13A.4.4,0,0,0,44,46.84Z"/><path class="cls-2" d="M45.71,46.93c0-.11,0-.15-.13-.18s-.07,0-.07,0,0,0,.08,0h.55s.07,0,.07,0,0,0-.07,0-.13.09-.13.15,0,.14,0,.54v.46c0,.14,0,.17.16.21s.06,0,.06,0,0,0-.07,0a2.16,2.16,0,0,0-.36,0,1.76,1.76,0,0,1-.23,0c-.1,0-.08,0-.08,0s0,0,.08,0,.12-.07.13-.18,0-.33,0-.53Z"/><path class="cls-2" d="M46.72,46.67h.54c.06,0,.08,0,.08,0s0,0-.06,0-.14.06-.14.09a6,6,0,0,0,0,.71V48a.08.08,0,0,0,.08.09h.37l.07,0a.65.65,0,0,0,.15-.18.18.18,0,0,1,.07,0s0,0,0,.07a1.72,1.72,0,0,0-.08.28l-.05,0s-.24,0-.73,0h-.35c-.07,0-.07,0-.07,0s0,0,.06,0,.15-.07.16-.17V46.9c0-.08,0-.12-.12-.15s-.07,0-.07,0S46.67,46.67,46.72,46.67Z"/><path class="cls-2" d="M12.08,48c0,.16,0,.31-.15.31a2.43,2.43,0,0,1-1.22-.21.38.38,0,0,1-.1-.21V45.3A3.39,3.39,0,0,1,7,42a3.86,3.86,0,0,1,2.89-3.57s0,0,0,.07v.54a.07.07,0,0,1,0,.07,2.51,2.51,0,0,0-1.63,2.48c0,2.22,1.21,3.13,2.36,3.13,0-1.1,0-2.42,0-4s.47-2.32,1.62-2.32a3.44,3.44,0,0,1,3.14,3.44,3.4,3.4,0,0,1-3.66,3.42A16.1,16.1,0,0,0,12.08,48Zm-.36-3.25c1.55,0,2.4-1,2.4-3.12,0-1.37-.77-2.65-1.79-2.65-.54,0-.62.54-.62,1Z"/><path class="cls-2" d="M22.17,41.35c0,2.17-1,4-3,4s-2.48-1.06-2.48-3.2V39.52c0-.14-.14-.18-.26-.19a3.05,3.05,0,0,0-.6-.06c-.07,0-.1,0-.1-.07v-.13c0-.06,0-.08.09-.09l1.78-.49a.8.8,0,0,1,.15,0s.11,0,.11.09c0,.74,0,1.85,0,3.57s.41,2.62,1.45,2.62c1.29,0,2-1.38,2-2.54A4.7,4.7,0,0,0,20.25,39c-.06-.06-.17-.2.07-.29l.89-.23a.47.47,0,0,1,.17,0,.21.21,0,0,1,.19.13A6.11,6.11,0,0,1,22.17,41.35Z"/><path class="cls-2" d="M31.42,38.94c0-.16.08-.3.22-.3h.71c.14,0,.22.08.22.3v4.69c0,.52,0,1,.58,1a1.83,1.83,0,0,0,.56-.13c.1-.05.16-.05.16,0v.4a.16.16,0,0,1-.09.15,2,2,0,0,1-1,.24c-.74,0-1.39-.32-1.39-1.46Z"/><path class="cls-2" d="M40.18,44.59a1.28,1.28,0,0,0,.47-.1.19.19,0,0,1,.1,0s.06,0,.06,0v.44a.13.13,0,0,1-.09.11,2.2,2.2,0,0,1-1.16.26,1.68,1.68,0,0,1-1.36-.69,27.41,27.41,0,0,1-1.89-2.54v2.63a.54.54,0,0,1-.1.4,1.78,1.78,0,0,1-.93.2c-.11,0-.13-.05-.13-.23V39.52c0-.13-.14-.17-.26-.19s-.4,0-.6-.06-.1,0-.1-.07v-.13c0-.06,0-.07.09-.09l1.77-.49a.41.41,0,0,1,.16,0s.1,0,.1.09v3c.49-.93,2.79-3.12,3.88-3.12.13,0,.2.1.2.28v.75c0,.19-.1.24-.19.24a4.08,4.08,0,0,0-2.94,1.61c.72,1.07,1.18,1.77,1.59,2.26S39.77,44.59,40.18,44.59Z"/><path class="cls-2" d="M44.25,38.45a3.24,3.24,0,0,1,3.44,3.39,3.36,3.36,0,0,1-3.25,3.46,3.43,3.43,0,0,1-.19-6.85Zm0,.52c-.79,0-1.93.64-1.93,2.79,0,2,1,3,2.09,3,.78,0,1.94-.55,1.94-2.79s-1.07-3-2.1-3Z"/><path class="cls-2" d="M52.64,46.06c0-.42-.35-.65-.76-.78-1-.32-3.26-.58-3.26-3.1a3.57,3.57,0,0,1,3.78-3.73,3,3,0,0,1,1.54.45.26.26,0,0,1,0,.36h0c-.39.39-.57.47-.78.47s-.79-.67-1.46-.67c-1.18,0-1.81,1.48-1.81,2.46,0,1.71.78,2.23,2.57,2.78.71.22,1.26.51,1.26,1.34a2.26,2.26,0,0,1-1.15,1.65.06.06,0,0,1-.08,0L52.1,47a.07.07,0,0,1,0-.09A1,1,0,0,0,52.64,46.06Z"/><path class="cls-2" d="M27.92,39.58c.6,0,.91,0,1.25.07h0c1.18.09,1.18-.65,1.18-.65v-.19c0-.1,0-.18-.18-.18H26.61a3.08,3.08,0,0,0-3.39,3.07,3.37,3.37,0,0,0,3.22,3.62,3.1,3.1,0,0,0,3.11-3A3,3,0,0,0,27.92,39.58Zm-1.38,5.18c-1.38,0-2-1.38-2-2.74,0-1.8.87-2.79,2.72-2.46A2.8,2.8,0,0,1,28.35,42c0,1.15-.44,2.74-1.81,2.74Z"/></svg>