<svg id="レイヤー_1" data-name="レイヤー 1" xmlns="http://www.w3.org/2000/svg" viewBox="0 0 60 60"><defs><style>.cls-1{fill:#fff;}.cls-2{fill:#222;}.cls-3{fill:#eee;}.cls-4{fill:#efefef;}</style></defs><title>アートボード 3</title><rect class="cls-1" width="60" height="60"/><path class="cls-2" d="M19.9,54.4,20,46l-5.2-.1c-2.5.3-3.5-2-3.5-4.5V21.9c0-3.4,1.7-4.9,4.9-4.9H45.6c3.3,0,4.7,1.8,4.7,5.1-.1,6.3-.1,12.6,0,19,0,3.3-1.4,4.8-4.8,4.7H43s-12.7-.2-14.6.1C26.2,47.9,23,51.7,19.9,54.4Z"/><path class="cls-3" d="M19.2,31.4c.1-1.6.9-2.5,2.5-2.4a2.29,2.29,0,0,1,2.5,2.4,2.42,2.42,0,0,1-2.5,2.5A2.47,2.47,0,0,1,19.2,31.4Z"/><path class="cls-4" d="M31,28.9a2.45,2.45,0,1,1-2.6,2.3C28.4,29.6,29.4,28.9,31,28.9Z"/><path class="cls-3" d="M42.3,30.6c.1,2-.7,3-2.2,3.2a2.29,2.29,0,0,1-2.7-2.2,2.29,2.29,0,0,1,2.2-2.7A2.37,2.37,0,0,1,42.3,30.6Z"/></svg>