<svg xmlns="http://www.w3.org/2000/svg" viewBox="0 0 80 72"><defs><style>.cls-1{fill:#6b8c7e;}</style></defs><g id="图层_2" data-name="图层 2"><g id="图层_2-2" data-name="图层 2"><path class="cls-1" d="M78.27,10.29H14.85a1.54,1.54,0,0,0-.34.08L11.92,1.81a1.41,1.41,0,0,0-.13-.24A1.71,1.71,0,0,0,10.11,0h0L1.71,0a1.71,1.71,0,1,0,0,3.41h0l7.12,0,16.4,54.46a8.13,8.13,0,1,0,13.6,6,8.31,8.31,0,0,0-.7-3.28H61.81a8,8,0,0,0-.69,3.28,8.14,8.14,0,1,0,8.13-8.14,8,8,0,0,0-4.58,1.44H35.31a8.06,8.06,0,0,0-4.59-1.44,8.19,8.19,0,0,0-2.43.4L25.84,48,69,48a1.68,1.68,0,0,0,1.6-1.17,1,1,0,0,0,.16-.35l9.15-33.7a2.81,2.81,0,0,0,0-.64s0-.06,0-.11A1.77,1.77,0,0,0,78.27,10.29Zm-9,48.86a4.72,4.72,0,1,1-4.72,4.72A4.72,4.72,0,0,1,69.28,59.15Zm-38.56,0A4.72,4.72,0,1,1,26,63.87,4.71,4.71,0,0,1,30.72,59.15Zm37-14.62-42.93,0L15.52,13.73H76.11Z"/></g></g></svg>