<svg id="レイヤー_1" data-name="レイヤー 1" xmlns="http://www.w3.org/2000/svg" viewBox="0 0 199 149.7" width="199" height="149"><defs><style>.cls-1,.cls-2{fill:#004829;}.cls-1{fill-rule:evenodd;}</style></defs><title>アートボード 4</title><path class="cls-1" d="M123.51,54a36.42,36.42,0,0,1-20.86,6.77c.15,10.1,1.28,16.21,2.29,24.51H94.33a197.27,197.27,0,0,0,2.28-24.66C75,58,65.14,46.17,66.49,28,68,7.9,86.68-2.49,87.79.51c.77,2.33-3.34,2.87-7.95,9.8C69.57,25.78,75.9,47.71,96.56,48.89c-.83-12.28-1.27-22.44-1.47-29.51C94.93,13.56,95,6.91,98.24,3.63c4.28-4.33,15.66-5,25.71,2C139.78,16.63,138.21,42.86,123.51,54Zm2.7-13.71c6.14-7.79,4.8-19.46-1.5-25.61-4.17-4.07-8.4-5-14.07-4.41-5.14,1-6.08,3-6.94,9.21-.67,9.73-1.06,20.5-1.06,29.45C113.29,49.26,120.64,47.33,126.21,40.26Z"/><path class="cls-2" d="M40.14,142.84a8.63,8.63,0,0,0,.88-.06s.11.06.12.13,0,.87,0,1.07-.07.28-.16.28-.17-.15-.19-.25c-.13-.56-.41-.71-.64-.75a9.3,9.3,0,0,0-1.39-.06s-.12,0-.13.28-.05,1.64,0,2.2c0,0,0,.1.1.1h.8c.71,0,.69,0,.88-.48.06-.15.13-.26.22-.26s.11.17.1.28c0,.28,0,.46,0,.69s0,.43,0,.68,0,.3-.13.3-.16-.12-.19-.22c-.13-.44-.26-.51-.65-.54s-.69,0-1,0c0,0-.13.1-.13.12a13.34,13.34,0,0,0,0,1.4,7.07,7.07,0,0,0,0,.82.37.37,0,0,0,.22.24,4.63,4.63,0,0,0,.81.06,3,3,0,0,0,.92-.09,1.53,1.53,0,0,0,.79-.74c.14-.26.23-.35.31-.35s.09.21.08.29a7.79,7.79,0,0,1-.38,1.16c0,.07-.19.13-.24.13s-2.58,0-3.34,0-.78,0-1.14,0c-.19,0-.34,0-.34-.13s.13-.16.3-.2c.51-.12.64-.22.68-.76s.08-1.18.08-2.42,0-1.64,0-1.93-.1-.56-.53-.64c-.21,0-.32-.08-.32-.18s.17-.15.31-.15l1.81,0Z"/><path class="cls-2" d="M43.44,142.79c.2,0,1.09,0,1.45,0l.88,0c.19,0,.29,0,.29.11s-.1.18-.3.25a.19.19,0,0,0-.13.3,17.76,17.76,0,0,0,1,1.72.06.06,0,0,0,.1,0A17.71,17.71,0,0,0,48,143.55c.1-.2-.05-.32-.36-.39s-.26-.15-.26-.2.08-.13.27-.13l.89,0,1.09,0c.13,0,.25,0,.25.11s-.14.18-.25.2a2.18,2.18,0,0,0-1.31.74c-.4.48-.88,1-1.33,1.64a.24.24,0,0,0,0,.15c.08.22,1.06,1.73,1.44,2.29a1.91,1.91,0,0,0,1.32,1c.19,0,.24.14.24.19s-.11.14-.34.14-1.26-.06-1.74-.06c-.29,0-.72,0-.85,0s-.25-.08-.25-.14.06-.14.23-.19a1.45,1.45,0,0,0,.3-.12.16.16,0,0,0,.05-.17c-.18-.33-1.1-1.86-1.22-2s-.08,0-.1,0a14.51,14.51,0,0,0-1,1.32c-.4.66-.26.8.13.93.17,0,.25.13.25.19s-.12.15-.25.15-.7,0-1,0-.77,0-1,0-.33,0-.33-.12.12-.18.36-.23a2.22,2.22,0,0,0,1.14-.7c.29-.32,1-1.15,1.51-1.86a.12.12,0,0,0,0-.14,20.07,20.07,0,0,0-1.56-2.49,1.24,1.24,0,0,0-.86-.53c-.19,0-.3-.14-.29-.21S43.22,142.79,43.44,142.79Z"/><path class="cls-2" d="M56,142.82a1.62,1.62,0,0,0,.77-.16c.08,0,.12-.08.16-.08s.13.11.09.25a7.59,7.59,0,0,0-.21,1.16c0,.09-.07.26-.19.26s-.13-.05-.17-.31c-.1-.57-.23-.66-.72-.68-.24,0-1,0-1.22,0a.14.14,0,0,0-.1.12c0,.46,0,1.22,0,2.08,0,1.15,0,2.21,0,2.72,0,.32.11.52.78.66.14,0,.25.14.25.2s-.17.13-.28.13l-1.48,0c-.31,0-1.08.06-1.25.06s-.31,0-.31-.12.12-.18.22-.21c.65-.16.69-.29.74-1s.09-2.58.09-3.35c0-.57,0-.91,0-1.17a.14.14,0,0,0-.11-.14c-.19,0-.91,0-1.13,0a.86.86,0,0,0-.55.23,2.7,2.7,0,0,0-.34.53c-.12.2-.18.26-.22.26s-.15-.12-.15-.22.18-.84.19-1.35c0,0,.09-.2.16-.2s.11.08.17.16a.81.81,0,0,0,.41.16c.22,0,1.54.06,2.22.06S55.71,142.84,56,142.82Z"/><path class="cls-2" d="M62.66,145.7l-.39.21c-.05,0,0,.1,0,.14a16,16,0,0,0,1.51,2.36,1.42,1.42,0,0,0,.86.5c.1,0,.18.1.18.14s-.09.13-.16.15a2.8,2.8,0,0,1-.67.08,1.69,1.69,0,0,1-1.51-.65c-.28-.38-.79-1.2-1.21-1.92a1.76,1.76,0,0,0-.32-.42.91.91,0,0,0-.48-.13.14.14,0,0,0-.11.1c0,.2,0,1.53,0,2s.1.53.56.65c.17,0,.24.12.24.19s-.19.15-.31.15c-.35,0-.79-.06-1.28-.06s-.85,0-1,0-.32-.07-.32-.16.11-.12.24-.16c.46-.14.57-.26.6-.58.06-.77.06-1.61.06-2.46,0-1.07,0-1.92-.05-2.19s-.11-.39-.58-.5c-.14,0-.25-.11-.25-.19s.12-.14.29-.14h.73c.37,0,1.2,0,1.74,0a2.89,2.89,0,0,1,1.74.44,1.62,1.62,0,0,1,.54,1.19A1.57,1.57,0,0,1,62.66,145.7Zm-1-2.23a1.15,1.15,0,0,0-.81-.35,1.55,1.55,0,0,0-.38.07.47.47,0,0,0-.12.21c0,.34-.07,2.09,0,2.35a.15.15,0,0,0,.13.12,2.57,2.57,0,0,0,1.08-.22,1.36,1.36,0,0,0,.56-1.12A1.58,1.58,0,0,0,61.69,143.47Z"/><path class="cls-2" d="M69.15,142.89c.09.24.27.75.4,1.12.55,1.55,1.23,3.37,1.43,3.87.33.81.55.91.89,1,.17.05.26.11.26.18s-.1.15-.33.15l-1.31,0-1,0c-.2,0-.32-.06-.32-.15s.07-.13.26-.17c.41-.1.42-.26.4-.42a8.61,8.61,0,0,0-.46-1.46.3.3,0,0,0-.24-.15c-1.06,0-1.54,0-1.68,0s-.09.07-.11.1a5,5,0,0,0-.43,1.45c0,.2.1.34.47.44.2,0,.29.11.29.2s-.14.13-.3.13-.43,0-.8,0-.84,0-1,0-.29-.06-.29-.12,0-.14.25-.2c.51-.14.62-.3.91-.89s1.32-3.34,1.74-4.33a.68.68,0,0,0,0-.18s0-.06,0-.08a5.84,5.84,0,0,0,.52-.62.26.26,0,0,1,.18-.13C69,142.67,69.07,142.69,69.15,142.89Zm0,3.4c-.15-.47-.59-1.68-.73-2,0-.07-.08,0-.11,0-.18.48-.66,1.74-.72,2a.08.08,0,0,0,.07.1l1.45,0A.08.08,0,0,0,69.17,146.29Z"/><path class="cls-2" d="M75.68,142.79c.2,0,.7,0,1.19,0l1.19,0c.13,0,.24,0,.24.12s-.07.16-.25.21c-.45.12-.44.26-.36.54.15.49,1.22,3.15,1.46,3.65,0,0,.08,0,.09,0s1.14-2.63,1.44-3.43c.22-.59-.05-.63-.45-.78-.11,0-.22-.11-.22-.17s.11-.15.27-.15.52,0,.85,0,.69,0,.9,0,.3.06.3.14-.1.16-.27.19a1.25,1.25,0,0,0-.91.84c-.22.49-.84,1.7-1.44,3.18-.33.79-.55,1.36-.75,2,0,.11-.17.26-.27.26s-.2-.17-.22-.24a13.17,13.17,0,0,0-.52-1.53c-.34-.91-1.11-2.76-1.49-3.67-.21-.47-.36-.69-.81-.82-.12,0-.26-.07-.26-.18S75.53,142.79,75.68,142.79Z"/><path class="cls-2" d="M84.33,143.91c0-.48,0-.63-.52-.75-.24-.06-.3-.13-.3-.2s.14-.14.32-.14l1.14,0c.49,0,.84,0,1.19,0,.17,0,.31,0,.31.14s-.14.17-.31.2c-.5.09-.53.35-.55.61s0,.6,0,2.32c0,1.21,0,1.64,0,1.94,0,.59.1.71.67.86.18,0,.28.11.28.21s-.19.13-.31.13c-.4,0-1.08-.06-1.5,0s-.59,0-1,0-.31-.07-.31-.17.09-.14.3-.19c.46-.11.53-.32.55-.75s0-1.41,0-2.26C84.36,145.33,84.36,144.28,84.33,143.91Z"/><path class="cls-2" d="M92.58,145.7l-.39.21s0,.1,0,.14a16,16,0,0,0,1.51,2.36,1.4,1.4,0,0,0,.86.5c.1,0,.18.1.18.14s-.09.13-.16.15a2.84,2.84,0,0,1-.67.08,1.68,1.68,0,0,1-1.51-.65c-.28-.38-.79-1.2-1.21-1.92a1.81,1.81,0,0,0-.32-.42.92.92,0,0,0-.48-.13.14.14,0,0,0-.11.1c0,.2,0,1.53,0,2s.1.53.56.65c.17,0,.24.12.24.19s-.19.15-.31.15c-.35,0-.79-.06-1.28-.06s-.85,0-1,0-.32-.07-.32-.16.11-.12.24-.16c.46-.14.57-.26.6-.58.06-.77.06-1.61.06-2.46,0-1.07,0-1.92,0-2.19s-.11-.39-.58-.5c-.14,0-.25-.11-.25-.19s.12-.14.29-.14h.73c.37,0,1.2,0,1.74,0a2.89,2.89,0,0,1,1.74.44,1.63,1.63,0,0,1,.54,1.19A1.58,1.58,0,0,1,92.58,145.7Zm-1-2.23a1.15,1.15,0,0,0-.81-.35,1.55,1.55,0,0,0-.38.07.43.43,0,0,0-.12.21c0,.34-.07,2.09,0,2.35a.16.16,0,0,0,.13.12,2.56,2.56,0,0,0,1.08-.22,1.35,1.35,0,0,0,.56-1.12A1.58,1.58,0,0,0,91.61,143.47Z"/><path class="cls-2" d="M100.51,142.89a3.84,3.84,0,0,0,.45.08s.11.09.12.23.15.8.15,1.2c0,.13-.06.25-.17.25s-.13-.11-.19-.26a3.08,3.08,0,0,0-.38-.7,2.19,2.19,0,0,0-1.6-.68c-1.52,0-2.41,1.35-2.41,2.92a3.53,3.53,0,0,0,.42,1.8A2.46,2.46,0,0,0,99,149a1.28,1.28,0,0,0,.63-.2,1,1,0,0,0,.21-.7,6.59,6.59,0,0,0,0-.89c-.06-.23-.14-.43-.8-.49-.15,0-.29-.1-.29-.19s.14-.14.34-.14c.37,0,.93,0,1.2,0s.79-.06,1.16-.06c.19,0,.27.07.27.15s-.11.15-.23.19c-.34.09-.33.21-.35.35s0,.83,0,1.24c0,.14,0,.18.16.3s.11.1.11.17-.08.13-.15.15-.51.14-.91.22a11.3,11.3,0,0,1-1.48.2,4.11,4.11,0,0,1-2.68-.87,3.24,3.24,0,0,1-1-2.5,3.08,3.08,0,0,1,1.11-2.41,4.19,4.19,0,0,1,2.69-.91A6.52,6.52,0,0,1,100.51,142.89Z"/><path class="cls-2" d="M104.22,143.91c0-.48,0-.63-.52-.75-.24-.06-.3-.13-.3-.2s.14-.14.32-.14l1.14,0c.49,0,.84,0,1.19,0,.17,0,.31,0,.31.14s-.14.17-.31.2c-.5.09-.53.35-.55.61s0,.6,0,2.32c0,1.21,0,1.64,0,1.94,0,.59.1.71.66.86.18,0,.28.12.28.21s-.19.13-.31.13c-.4,0-1.09-.06-1.51,0s-.59,0-1,0-.31-.07-.31-.17.09-.14.3-.19c.46-.11.53-.32.55-.75s.05-1.41.05-2.26C104.25,145.33,104.25,144.28,104.22,143.91Z"/><path class="cls-2" d="M108.07,142.8c.22,0,1,0,1.52,0a.58.58,0,0,1,.22.13l.84,1c.49.6,2.45,2.63,3,3.2.05,0,.09,0,.09-.06.05-.29,0-1.42,0-2.26,0-.34,0-.81-.06-1.07s-.12-.43-.62-.56c-.2,0-.33-.11-.33-.23s.11-.12.29-.12h.68c.48,0,.89,0,1.15,0s.24.06.24.13-.07.15-.25.2c-.52.17-.57.35-.62.75s-.1,2.89-.1,3.75c0,.42.06,1.3.06,1.56a.23.23,0,0,1-.16.19c-.21,0-.45-.26-.54-.38s-.38-.48-.65-.81c-.94-1.15-2.58-2.87-3.47-3.92,0-.06-.11,0-.11,0,0,.27,0,.5,0,1.29,0,1.39,0,2.15,0,2.64,0,.32.15.49.63.64.21.06.28.13.28.19s-.14.15-.33.15-.52,0-.87,0l-1,0c-.14,0-.26,0-.26-.13s.12-.15.22-.18c.46-.14.7-.22.73-1,.05-1.12.18-3,.18-3.77,0-.4,0-.52-.06-.56a1,1,0,0,0-.77-.48c-.11,0-.26-.1-.26-.17S107.9,142.8,108.07,142.8Z"/><path class="cls-2" d="M125.91,145.92a3.3,3.3,0,0,1-1.26,2.72,3.76,3.76,0,0,1-2.19.72,3.54,3.54,0,0,1-2.61-1.07A3.32,3.32,0,0,1,119,146a3.13,3.13,0,0,1,1.29-2.6,3.73,3.73,0,0,1,2.13-.72A3.32,3.32,0,0,1,125.91,145.92ZM121,143.53a3.11,3.11,0,0,0-.7,2.25c0,1.54.94,3.21,2.4,3.21a1.44,1.44,0,0,0,1-.41,3.44,3.44,0,0,0,.77-2.36,3.88,3.88,0,0,0-1-2.66,2.2,2.2,0,0,0-1.32-.54A1.76,1.76,0,0,0,121,143.53Z"/><path class="cls-2" d="M127.55,142.82l1,0c.39,0,1.08,0,1.32,0s.31,0,.31.12-.12.16-.22.19c-.54.13-.62.28-.63.4a29,29,0,0,0-.07,3c0,.69,0,1.51.05,1.85s.32.38.36.39a6.32,6.32,0,0,0,.83.05,4.23,4.23,0,0,0,.72-.05.59.59,0,0,0,.31-.14,3.64,3.64,0,0,0,.63-.78.41.41,0,0,1,.27-.2c.07,0,.08.11,0,.27-.11.35-.26.9-.32,1.18a.46.46,0,0,1-.23.17c-.15,0-1-.07-3.08-.07-.48,0-1.17.06-1.48.06s-.3,0-.3-.13.09-.16.25-.19c.55-.1.64-.28.69-.72,0-.25,0-1.31,0-2.75,0-1,0-1.36,0-1.69s-.06-.5-.52-.61c-.19,0-.28-.12-.28-.19S127.37,142.82,127.55,142.82Z"/><path class="cls-2" d="M134.4,143.91c0-.48,0-.63-.52-.75-.24-.06-.3-.13-.3-.2s.14-.14.32-.14l1.14,0c.49,0,.84,0,1.19,0,.17,0,.31,0,.31.14s-.14.17-.31.2c-.5.09-.53.35-.55.61s0,.6,0,2.32c0,1.21,0,1.64,0,1.94,0,.59.1.71.66.86.18,0,.28.12.28.21s-.19.13-.31.13c-.4,0-1.09-.06-1.5,0s-.59,0-1,0-.31-.07-.31-.17.09-.14.3-.19c.46-.11.53-.32.55-.75s0-1.41,0-2.26C134.43,145.33,134.43,144.28,134.4,143.91Z"/><path class="cls-2" d="M137.86,142.79c.2,0,.7,0,1.19,0l1.19,0c.13,0,.24,0,.24.12s-.07.16-.25.21c-.45.12-.44.26-.36.54.15.49,1.22,3.15,1.46,3.65,0,0,.08,0,.09,0s1.14-2.63,1.44-3.43c.22-.59,0-.63-.45-.78-.11,0-.22-.11-.22-.17s.11-.15.27-.15.52,0,.85,0,.69,0,.9,0,.3.06.3.14-.1.16-.27.19c-.45.11-.66.32-.91.84s-.84,1.7-1.44,3.18c-.33.79-.55,1.36-.75,2,0,.11-.17.26-.27.26s-.2-.17-.22-.24a12.58,12.58,0,0,0-.52-1.53c-.34-.91-1.11-2.76-1.49-3.67-.21-.47-.36-.69-.81-.82-.12,0-.26-.07-.26-.18S137.71,142.79,137.86,142.79Z"/><path class="cls-2" d="M148.9,142.84a8.54,8.54,0,0,0,.88-.06s.11.06.12.13,0,.87,0,1.07-.07.28-.16.28-.17-.15-.19-.25c-.13-.56-.41-.71-.64-.75a9.28,9.28,0,0,0-1.39-.06s-.12,0-.13.28,0,1.64,0,2.2c0,0,0,.1.1.1h.8c.71,0,.69,0,.88-.48.06-.15.13-.26.22-.26s.11.17.1.28c0,.28,0,.46,0,.69s0,.43,0,.68,0,.3-.13.3-.16-.12-.19-.22c-.13-.44-.26-.51-.65-.54s-.69,0-1,0c0,0-.13.1-.13.12a12.87,12.87,0,0,0,0,1.4,8.06,8.06,0,0,0,0,.82.37.37,0,0,0,.22.24,4.66,4.66,0,0,0,.81.06,3,3,0,0,0,.92-.09,1.53,1.53,0,0,0,.79-.74c.14-.26.23-.35.31-.35s.09.21.08.29a8.25,8.25,0,0,1-.38,1.16c0,.07-.19.13-.24.13s-2.59,0-3.34,0-.78,0-1.14,0c-.19,0-.34,0-.34-.13s.13-.16.3-.2c.51-.12.64-.22.68-.76s.08-1.18.08-2.43,0-1.64,0-1.93-.1-.56-.53-.64c-.21,0-.32-.08-.32-.18s.17-.15.31-.15l1.81,0Z"/><path class="cls-2" d="M161.39,145.92a3.31,3.31,0,0,1-1.26,2.72,3.77,3.77,0,0,1-2.19.72,3.53,3.53,0,0,1-2.6-1.07,3.31,3.31,0,0,1-.86-2.3,3.14,3.14,0,0,1,1.29-2.6,3.74,3.74,0,0,1,2.13-.72A3.32,3.32,0,0,1,161.39,145.92Zm-4.87-2.39a3.11,3.11,0,0,0-.7,2.25c0,1.54.94,3.21,2.4,3.21a1.44,1.44,0,0,0,1-.41,3.44,3.44,0,0,0,.77-2.36,3.88,3.88,0,0,0-1-2.66,2.2,2.2,0,0,0-1.32-.54A1.76,1.76,0,0,0,156.52,143.53Z"/><path class="cls-2" d="M163.91,143.91c0-.48,0-.63-.52-.75-.24-.06-.3-.13-.3-.2s.14-.14.32-.14l1.14,0c.49,0,.84,0,1.19,0,.17,0,.31,0,.31.14s-.14.17-.31.2c-.5.09-.53.35-.55.61s0,.6,0,2.32c0,1.21,0,1.64,0,1.94,0,.59.1.71.66.86.18,0,.28.12.28.21s-.19.13-.31.13c-.4,0-1.08-.06-1.5,0s-.59,0-1,0-.31-.07-.31-.17.09-.14.3-.19c.46-.11.53-.32.55-.75s.05-1.41.05-2.26C163.94,145.33,163.94,144.28,163.91,143.91Z"/><path class="cls-2" d="M168.18,142.82l1,0c.39,0,1.08,0,1.32,0s.31,0,.31.12-.12.16-.22.19c-.54.13-.62.28-.63.4-.07.5-.07,1.51-.07,3,0,.69,0,1.51,0,1.85s.32.38.36.39a6.4,6.4,0,0,0,.83.05,4.22,4.22,0,0,0,.72-.05.59.59,0,0,0,.31-.14,3.94,3.94,0,0,0,.63-.78.4.4,0,0,1,.27-.2c.07,0,.08.11,0,.27-.11.35-.26.9-.32,1.18a.47.47,0,0,1-.23.17c-.15,0-1-.07-3.08-.07-.48,0-1.17.06-1.48.06s-.3,0-.3-.13.09-.16.25-.19c.55-.1.64-.28.69-.72,0-.25,0-1.31,0-2.75,0-1,0-1.36,0-1.69s-.06-.5-.52-.61c-.19,0-.28-.12-.28-.19S168,142.82,168.18,142.82Z"/><path class="cls-2" d="M21.5,148.41c.18.68.18,1.29-.61,1.29-2,0-4.48-.18-5.16-.86a1.44,1.44,0,0,1-.43-.92V137C8.79,137,0,132.93,0,123.1c0-7.43,5.53-13,12.23-15.11.18-.06.24.06.24.31v2.27c0,.19-.12.25-.24.31-4.55,2.21-6.88,5.29-6.88,10.5,0,9.4,5.1,13.27,10,13.27,0-4.67.06-10.26.06-16.83,0-7.07,2-9.83,6.88-9.83,6.88,0,13.27,6.94,13.27,14.56,0,10.32-8.35,14.5-15.48,14.5A66.6,66.6,0,0,0,21.5,148.41ZM20,134.65c6.57,0,10.13-4.24,10.13-13.21,0-5.83-3.25-11.24-7.56-11.24-2.27,0-2.64,2.27-2.64,4.3Z"/><path class="cls-2" d="M64.25,120.27c0,9.22-4.36,16.77-12.59,16.77-7.92,0-10.5-4.49-10.5-13.52v-11c0-.56-.61-.74-1.11-.8a17,17,0,0,0-2.52-.25c-.31,0-.43-.12-.43-.3v-.56c0-.24.12-.31.37-.36L45,108.17a3.14,3.14,0,0,1,.67-.12c.18,0,.43,0,.43.37,0,3.13-.06,7.86-.06,15.11s1.72,11.12,6.14,11.12c5.46,0,8.6-5.84,8.6-10.75,0-6.33-2.34-11.06-4.67-13.52-.24-.25-.74-.86.31-1.23l3.74-1a3.73,3.73,0,0,1,.73-.12.85.85,0,0,1,.8.55A25.58,25.58,0,0,1,64.25,120.27Z"/><path class="cls-2" d="M103.42,110.08c0-.67.31-1.29.92-1.29h3c.61,0,.92.37.92,1.29v19.85c0,2.21.12,4.18,2.46,4.18a6.78,6.78,0,0,0,2.39-.55c.43-.19.68-.19.68.12v1.66a.75.75,0,0,1-.37.67,8.92,8.92,0,0,1-4.12,1c-3.13,0-5.9-1.35-5.9-6.2Z"/><path class="cls-2" d="M140.5,134a4.94,4.94,0,0,0,2-.43,1.69,1.69,0,0,1,.43-.12.22.22,0,0,1,.25.24v1.78a.61.61,0,0,1-.37.49,9.71,9.71,0,0,1-4.92,1.11c-2.27,0-4-.86-5.77-2.95a108.73,108.73,0,0,1-8-10.75v11.12c0,.61,0,1.35-.43,1.72a7.81,7.81,0,0,1-3.93.86c-.49,0-.55-.25-.55-1V112.54c0-.56-.61-.74-1.11-.8a17.24,17.24,0,0,0-2.52-.25c-.31,0-.43-.12-.43-.31v-.56c0-.24.12-.31.37-.36s6.57-1.84,7.49-2.09a3.15,3.15,0,0,1,.68-.12c.18,0,.43,0,.43.37v12.84c2.09-3.93,11.8-13.21,16.41-13.21.55,0,.86.43.86,1.17v3.19c0,.8-.43,1-.8,1-4.67,0-10,3.38-12.47,6.82,3.07,4.55,5,7.5,6.76,9.58C136.07,131.28,138.78,134,140.5,134Z"/><path class="cls-2" d="M157.73,108c8.54,0,14.56,5.65,14.56,14.37,0,7.5-5.59,14.62-13.76,14.62s-14.62-5.65-14.62-14.38C143.91,114.69,149.5,108,157.73,108Zm0,2.21c-3.32,0-8.17,2.71-8.17,11.8,0,8.36,4.06,12.78,8.85,12.78,3.31,0,8.23-2.33,8.23-11.79C166.64,113.33,162.09,110.2,157.73,110.2Z"/><path class="cls-2" d="M193.27,140.24c0-1.78-1.48-2.77-3.2-3.32-4.36-1.35-13.82-2.45-13.82-13.14,0-9,6.08-15.79,16-15.79,2,0,5.47.92,6.51,1.9a1.08,1.08,0,0,1-.12,1.54c-1.66,1.66-2.39,2-3.31,2-1.29,0-3.32-2.83-6.15-2.83-5,0-7.68,6.27-7.68,10.39,0,7.25,3.32,9.46,10.87,11.79,3,.92,5.34,2.15,5.34,5.66,0,2.45-2.21,5.34-4.85,7a.29.29,0,0,1-.37,0L191,144.24a.27.27,0,0,1,.06-.37A4.19,4.19,0,0,0,193.27,140.24Z"/><path class="cls-2" d="M88.59,112.78c2.52.1,3.86.18,5.28.3h0c5,.37,5-2.74,5-2.74v-.82c0-.43-.12-.74-.74-.74H83.06c-7.56,0-14.38,4.36-14.38,13,0,8.42,5.65,15.3,13.64,15.3a13.09,13.09,0,0,0,13.15-12.78C95.47,118.86,92.95,115.36,88.59,112.78Zm-5.84,21.93c-5.84,0-8.66-5.84-8.66-11.61,0-7.62,3.68-11.8,11.55-10.38,3.5,2.34,4.79,6.27,4.79,10.38C90.43,128,88.53,134.71,82.75,134.71Z"/></svg>